<!DOCTYPE svg PUBLIC "-//W3C//DTD SVG 1.1//EN" "http://www.w3.org/Graphics/SVG/1.1/DTD/svg11.dtd">
<!-- Uploaded to: SVG Repo, www.svgrepo.com, Transformed by: SVG Repo Mixer Tools -->
<svg fill="#9d4325" height="800px" width="800px" version="1.1" xmlns="http://www.w3.org/2000/svg" viewBox="-45.99 -45.99 602.98 602.98" xmlns:xlink="http://www.w3.org/1999/xlink" enable-background="new 0 0 511 511" stroke="#9d4325" transform="rotate(0)matrix(1, 0, 0, 1, 0, 0)" stroke-width="4.088">
<g id="SVGRepo_bgCarrier" stroke-width="0"/>
<g id="SVGRepo_tracerCarrier" stroke-linecap="round" stroke-linejoin="round" stroke="#000000" stroke-width="9.197999999999999"> <g> <path d="m167.672,242.353l-40,40c-2.929,2.929-2.929,7.678 0,10.606 1.464,1.464 3.384,2.197 5.303,2.197s3.839-0.732 5.303-2.197l40-40c2.929-2.929 2.929-7.678 0-10.606-2.928-2.929-7.677-2.929-10.606,0z"/> <path d="m412.722,242.353l-40,40c-2.929,2.929-2.929,7.678 0,10.606 1.464,1.464 3.384,2.197 5.303,2.197s3.839-0.732 5.303-2.197l40-40c2.929-2.929 2.929-7.678 0-10.606-2.929-2.929-7.678-2.929-10.606,0z"/> <path d="m487.5,192.156h-15.515c-4.918-6.111-12.082-10.423-20.41-11.514-48.804-6.397-98.295-6.397-147.099,0-14.045,1.841-24.79,12.829-26.999,26.192-6.339-4.243-13.928-6.678-21.977-6.678-8.051,0-15.64,2.434-21.978,6.675-2.209-13.362-12.953-24.349-26.998-26.189-48.804-6.397-98.295-6.397-147.099,0-8.328,1.092-15.492,5.403-20.41,11.514h-15.515c-12.958,0-23.5,10.542-23.5,23.5s10.542,23.5 23.5,23.5h11.611c0.168,1.352 0.336,2.705 0.504,4.056 2.203,17.714 4.481,36.031 6.728,56.393 2.232,20.167 19.089,35.451 39.247,35.551h102.804c0.015,0 0.03,0 0.044,0 20.101-0.12 36.94-15.403 39.17-35.554 2.245-20.349 4.522-38.657 6.724-56.363 0.359-2.891 0.719-5.783 1.078-8.68 0.14-0.333 0.269-0.673 0.362-1.033 2.784-10.816 12.542-18.37 23.729-18.37 11.17,0 20.924,7.54 23.719,18.335 0.095,0.369 0.225,0.719 0.37,1.059 0.358,2.891 0.717,5.777 1.076,8.662 2.203,17.714 4.481,36.031 6.728,56.393 2.232,20.167 19.089,35.451 39.247,35.551h102.804c0.015,0 0.03,0 0.044,0 20.101-0.12 36.94-15.403 39.17-35.554 2.245-20.349 4.522-38.657 6.724-56.363 0.169-1.361 0.338-2.722 0.507-4.083h11.61c12.958,0 23.5-10.542 23.5-23.5s-10.542-23.5-23.5-23.5zm-464,32c-4.687,0-8.5-3.813-8.5-8.5s3.813-8.5 8.5-8.5h8.876c-0.427,2.764-0.498,5.624-0.149,8.526 0.343,2.85 0.687,5.668 1.031,8.474h-9.758zm185.199,73.798c-1.392,12.576-11.85,22.117-24.331,22.202h-102.742c-3.107-0.015-6.088-0.619-8.837-1.707l81.49-81.489c2.929-2.929 2.929-7.678 0-10.606-2.929-2.929-7.678-2.929-10.606,0l-82.525,82.524c-2.07-3.191-3.45-6.897-3.896-10.92-2.257-20.463-4.542-38.832-6.751-56.597-1.128-9.074-2.255-18.133-3.38-27.472-1.079-8.96 5.316-17.202 14.255-18.374 23.755-3.114 47.678-4.671 71.6-4.671 14.817,0 29.634,0.601 44.411,1.795l-9.714,9.714c-2.929,2.929-2.929,7.678 0,10.606 1.464,1.464 3.384,2.197 5.303,2.197s3.839-0.732 5.303-2.197l16-16c0.739-0.739 1.29-1.594 1.656-2.505 2.882,0.332 5.763,0.684 8.641,1.061 8.939,1.171 15.333,9.414 14.254,18.374-1.125,9.348-2.253,18.417-3.383,27.5-2.209,17.755-4.492,36.116-6.748,56.565zm255.18-84.065c-1.125,9.348-2.253,18.417-3.383,27.5-2.208,17.756-4.491,36.117-6.748,56.566-1.392,12.576-11.85,22.117-24.331,22.202h-102.741c-3.107-0.015-6.088-0.619-8.837-1.707l81.49-81.489c2.929-2.929 2.929-7.678 0-10.606-2.928-2.929-7.677-2.929-10.606,0l-82.525,82.524c-2.07-3.191-3.45-6.897-3.896-10.92-2.257-20.463-4.542-38.832-6.751-56.597-1.128-9.074-2.255-18.133-3.38-27.472-1.079-8.96 5.316-17.202 14.255-18.374 23.755-3.114 47.678-4.671 71.6-4.671 14.817,0 29.634,0.601 44.411,1.795l-9.714,9.714c-2.929,2.929-2.929,7.678 0,10.606 1.464,1.464 3.384,2.197 5.303,2.197s3.839-0.732 5.303-2.197l16-16c0.739-0.739 1.29-1.594 1.656-2.505 2.882,0.332 5.763,0.684 8.641,1.061 8.938,1.17 15.332,9.413 14.253,18.373zm23.621,10.267h-9.758c0.344-2.806 0.687-5.624 1.03-8.474 0.35-2.902 0.279-5.762-0.148-8.526h8.876c4.687,0 8.5,3.813 8.5,8.5s-3.813,8.5-8.5,8.5z"/> </g> </g>
<g id="SVGRepo_iconCarrier"> <g> <path d="m167.672,242.353l-40,40c-2.929,2.929-2.929,7.678 0,10.606 1.464,1.464 3.384,2.197 5.303,2.197s3.839-0.732 5.303-2.197l40-40c2.929-2.929 2.929-7.678 0-10.606-2.928-2.929-7.677-2.929-10.606,0z"/> <path d="m412.722,242.353l-40,40c-2.929,2.929-2.929,7.678 0,10.606 1.464,1.464 3.384,2.197 5.303,2.197s3.839-0.732 5.303-2.197l40-40c2.929-2.929 2.929-7.678 0-10.606-2.929-2.929-7.678-2.929-10.606,0z"/> <path d="m487.5,192.156h-15.515c-4.918-6.111-12.082-10.423-20.41-11.514-48.804-6.397-98.295-6.397-147.099,0-14.045,1.841-24.79,12.829-26.999,26.192-6.339-4.243-13.928-6.678-21.977-6.678-8.051,0-15.64,2.434-21.978,6.675-2.209-13.362-12.953-24.349-26.998-26.189-48.804-6.397-98.295-6.397-147.099,0-8.328,1.092-15.492,5.403-20.41,11.514h-15.515c-12.958,0-23.5,10.542-23.5,23.5s10.542,23.5 23.5,23.5h11.611c0.168,1.352 0.336,2.705 0.504,4.056 2.203,17.714 4.481,36.031 6.728,56.393 2.232,20.167 19.089,35.451 39.247,35.551h102.804c0.015,0 0.03,0 0.044,0 20.101-0.12 36.94-15.403 39.17-35.554 2.245-20.349 4.522-38.657 6.724-56.363 0.359-2.891 0.719-5.783 1.078-8.68 0.14-0.333 0.269-0.673 0.362-1.033 2.784-10.816 12.542-18.37 23.729-18.37 11.17,0 20.924,7.54 23.719,18.335 0.095,0.369 0.225,0.719 0.37,1.059 0.358,2.891 0.717,5.777 1.076,8.662 2.203,17.714 4.481,36.031 6.728,56.393 2.232,20.167 19.089,35.451 39.247,35.551h102.804c0.015,0 0.03,0 0.044,0 20.101-0.12 36.94-15.403 39.17-35.554 2.245-20.349 4.522-38.657 6.724-56.363 0.169-1.361 0.338-2.722 0.507-4.083h11.61c12.958,0 23.5-10.542 23.5-23.5s-10.542-23.5-23.5-23.5zm-464,32c-4.687,0-8.5-3.813-8.5-8.5s3.813-8.5 8.5-8.5h8.876c-0.427,2.764-0.498,5.624-0.149,8.526 0.343,2.85 0.687,5.668 1.031,8.474h-9.758zm185.199,73.798c-1.392,12.576-11.85,22.117-24.331,22.202h-102.742c-3.107-0.015-6.088-0.619-8.837-1.707l81.49-81.489c2.929-2.929 2.929-7.678 0-10.606-2.929-2.929-7.678-2.929-10.606,0l-82.525,82.524c-2.07-3.191-3.45-6.897-3.896-10.92-2.257-20.463-4.542-38.832-6.751-56.597-1.128-9.074-2.255-18.133-3.38-27.472-1.079-8.96 5.316-17.202 14.255-18.374 23.755-3.114 47.678-4.671 71.6-4.671 14.817,0 29.634,0.601 44.411,1.795l-9.714,9.714c-2.929,2.929-2.929,7.678 0,10.606 1.464,1.464 3.384,2.197 5.303,2.197s3.839-0.732 5.303-2.197l16-16c0.739-0.739 1.29-1.594 1.656-2.505 2.882,0.332 5.763,0.684 8.641,1.061 8.939,1.171 15.333,9.414 14.254,18.374-1.125,9.348-2.253,18.417-3.383,27.5-2.209,17.755-4.492,36.116-6.748,56.565zm255.18-84.065c-1.125,9.348-2.253,18.417-3.383,27.5-2.208,17.756-4.491,36.117-6.748,56.566-1.392,12.576-11.85,22.117-24.331,22.202h-102.741c-3.107-0.015-6.088-0.619-8.837-1.707l81.49-81.489c2.929-2.929 2.929-7.678 0-10.606-2.928-2.929-7.677-2.929-10.606,0l-82.525,82.524c-2.07-3.191-3.45-6.897-3.896-10.92-2.257-20.463-4.542-38.832-6.751-56.597-1.128-9.074-2.255-18.133-3.38-27.472-1.079-8.96 5.316-17.202 14.255-18.374 23.755-3.114 47.678-4.671 71.6-4.671 14.817,0 29.634,0.601 44.411,1.795l-9.714,9.714c-2.929,2.929-2.929,7.678 0,10.606 1.464,1.464 3.384,2.197 5.303,2.197s3.839-0.732 5.303-2.197l16-16c0.739-0.739 1.29-1.594 1.656-2.505 2.882,0.332 5.763,0.684 8.641,1.061 8.938,1.17 15.332,9.413 14.253,18.373zm23.621,10.267h-9.758c0.344-2.806 0.687-5.624 1.03-8.474 0.35-2.902 0.279-5.762-0.148-8.526h8.876c4.687,0 8.5,3.813 8.5,8.5s-3.813,8.5-8.5,8.5z"/> </g> </g>
</svg>